<mxfile host="app.diagrams.net" agent="Mozilla/5.0 (Macintosh; Intel Mac OS X 10_15_7) AppleWebKit/537.36 (KHTML, like Gecko) Chrome/133.0.0.0 Safari/537.36" version="26.1.0">
  <diagram name="Page-1" id="2BrvUAWATzIQuyx2zV1i">
    <mxGraphModel dx="1307" dy="740" grid="1" gridSize="10" guides="1" tooltips="1" connect="1" arrows="1" fold="1" page="1" pageScale="1" pageWidth="850" pageHeight="1100" math="0" shadow="0">
      <root>
        <mxCell id="0" />
        <mxCell id="1" parent="0" />
        <mxCell id="26mJcaNlzEH-g_sx6JuL-1" value="User" style="shape=umlActor;verticalLabelPosition=bottom;verticalAlign=top;html=1;outlineConnect=0;" vertex="1" parent="1">
          <mxGeometry x="100" y="285" width="60" height="110" as="geometry" />
        </mxCell>
        <mxCell id="26mJcaNlzEH-g_sx6JuL-4" value="" style="endArrow=classic;html=1;rounded=0;exitX=0.5;exitY=0;exitDx=0;exitDy=0;exitPerimeter=0;dashed=1;" edge="1" parent="1" source="26mJcaNlzEH-g_sx6JuL-1">
          <mxGeometry relative="1" as="geometry">
            <mxPoint x="170" y="225" as="sourcePoint" />
            <mxPoint x="280" y="215" as="targetPoint" />
            <Array as="points">
              <mxPoint x="130" y="215" />
            </Array>
          </mxGeometry>
        </mxCell>
        <mxCell id="26mJcaNlzEH-g_sx6JuL-5" value="&lt;font style=&quot;font-size: 15px;&quot;&gt;1. Login&lt;/font&gt;" style="edgeLabel;resizable=0;html=1;;align=center;verticalAlign=middle;" connectable="0" vertex="1" parent="26mJcaNlzEH-g_sx6JuL-4">
          <mxGeometry relative="1" as="geometry" />
        </mxCell>
        <mxCell id="26mJcaNlzEH-g_sx6JuL-6" value="" style="verticalLabelPosition=bottom;sketch=0;aspect=fixed;html=1;verticalAlign=top;strokeColor=none;align=center;outlineConnect=0;shape=mxgraph.citrix.license_server;" vertex="1" parent="1">
          <mxGeometry x="630" y="153" width="103.24" height="135" as="geometry" />
        </mxCell>
        <mxCell id="26mJcaNlzEH-g_sx6JuL-10" value="&lt;span style=&quot;font-size: 15px;&quot;&gt;Server&lt;/span&gt;" style="text;html=1;align=center;verticalAlign=middle;whiteSpace=wrap;rounded=0;" vertex="1" parent="1">
          <mxGeometry x="651.62" y="298" width="60" height="30" as="geometry" />
        </mxCell>
        <mxCell id="26mJcaNlzEH-g_sx6JuL-11" value="" style="endArrow=classic;html=1;rounded=0;dashed=1;" edge="1" parent="1">
          <mxGeometry relative="1" as="geometry">
            <mxPoint x="752" y="211.97" as="sourcePoint" />
            <mxPoint x="902" y="211.97" as="targetPoint" />
            <Array as="points">
              <mxPoint x="752" y="211.97" />
            </Array>
          </mxGeometry>
        </mxCell>
        <mxCell id="26mJcaNlzEH-g_sx6JuL-12" value="&lt;span style=&quot;font-size: 15px;&quot;&gt;3. Create session&lt;/span&gt;" style="edgeLabel;resizable=0;html=1;;align=center;verticalAlign=middle;" connectable="0" vertex="1" parent="26mJcaNlzEH-g_sx6JuL-11">
          <mxGeometry relative="1" as="geometry" />
        </mxCell>
        <mxCell id="26mJcaNlzEH-g_sx6JuL-13" value="" style="verticalLabelPosition=bottom;sketch=0;aspect=fixed;html=1;verticalAlign=top;strokeColor=none;align=center;outlineConnect=0;shape=mxgraph.citrix.database;" vertex="1" parent="1">
          <mxGeometry x="924.31" y="150" width="110.5" height="130" as="geometry" />
        </mxCell>
        <mxCell id="26mJcaNlzEH-g_sx6JuL-14" value="&lt;span style=&quot;font-size: 15px;&quot;&gt;4. Store session&lt;/span&gt;" style="text;html=1;align=center;verticalAlign=middle;whiteSpace=wrap;rounded=0;" vertex="1" parent="1">
          <mxGeometry x="903.9999999999999" y="298" width="151.12" height="30" as="geometry" />
        </mxCell>
        <mxCell id="26mJcaNlzEH-g_sx6JuL-16" value="" style="verticalLabelPosition=bottom;sketch=0;aspect=fixed;html=1;verticalAlign=top;strokeColor=none;align=center;outlineConnect=0;shape=mxgraph.citrix.laptop_2;" vertex="1" parent="1">
          <mxGeometry x="287.89" y="171" width="154.22" height="115" as="geometry" />
        </mxCell>
        <mxCell id="26mJcaNlzEH-g_sx6JuL-17" value="&lt;span style=&quot;font-size: 15px;&quot;&gt;Client&lt;/span&gt;" style="text;html=1;align=center;verticalAlign=middle;whiteSpace=wrap;rounded=0;" vertex="1" parent="1">
          <mxGeometry x="335" y="298" width="60" height="30" as="geometry" />
        </mxCell>
        <mxCell id="26mJcaNlzEH-g_sx6JuL-18" value="" style="endArrow=classic;html=1;rounded=0;dashed=1;" edge="1" parent="1">
          <mxGeometry relative="1" as="geometry">
            <mxPoint x="455" y="212.47" as="sourcePoint" />
            <mxPoint x="605" y="212" as="targetPoint" />
            <Array as="points">
              <mxPoint x="455" y="212.47" />
            </Array>
          </mxGeometry>
        </mxCell>
        <mxCell id="26mJcaNlzEH-g_sx6JuL-19" value="&lt;span style=&quot;font-size: 15px;&quot;&gt;2. Authenticate&lt;/span&gt;" style="edgeLabel;resizable=0;html=1;;align=center;verticalAlign=middle;" connectable="0" vertex="1" parent="26mJcaNlzEH-g_sx6JuL-18">
          <mxGeometry relative="1" as="geometry" />
        </mxCell>
        <mxCell id="26mJcaNlzEH-g_sx6JuL-20" value="" style="endArrow=classic;html=1;rounded=0;" edge="1" parent="1">
          <mxGeometry relative="1" as="geometry">
            <mxPoint x="120" y="430" as="sourcePoint" />
            <mxPoint x="270" y="490" as="targetPoint" />
            <Array as="points">
              <mxPoint x="120" y="490" />
            </Array>
          </mxGeometry>
        </mxCell>
        <mxCell id="26mJcaNlzEH-g_sx6JuL-21" value="&lt;font style=&quot;font-size: 15px;&quot;&gt;5. Login&lt;/font&gt;" style="edgeLabel;resizable=0;html=1;;align=center;verticalAlign=middle;" connectable="0" vertex="1" parent="26mJcaNlzEH-g_sx6JuL-20">
          <mxGeometry relative="1" as="geometry" />
        </mxCell>
        <mxCell id="26mJcaNlzEH-g_sx6JuL-22" value="" style="verticalLabelPosition=bottom;sketch=0;aspect=fixed;html=1;verticalAlign=top;strokeColor=none;align=center;outlineConnect=0;shape=mxgraph.citrix.laptop_2;" vertex="1" parent="1">
          <mxGeometry x="280" y="420" width="154.22" height="115" as="geometry" />
        </mxCell>
        <mxCell id="26mJcaNlzEH-g_sx6JuL-23" value="&lt;span style=&quot;font-size: 15px;&quot;&gt;Client&lt;/span&gt;" style="text;html=1;align=center;verticalAlign=middle;whiteSpace=wrap;rounded=0;" vertex="1" parent="1">
          <mxGeometry x="327.11" y="547" width="60" height="30" as="geometry" />
        </mxCell>
        <mxCell id="26mJcaNlzEH-g_sx6JuL-24" value="" style="endArrow=classic;html=1;rounded=0;" edge="1" parent="1">
          <mxGeometry relative="1" as="geometry">
            <mxPoint x="454" y="469.44000000000005" as="sourcePoint" />
            <mxPoint x="660" y="468.97" as="targetPoint" />
            <Array as="points">
              <mxPoint x="454" y="469.44000000000005" />
            </Array>
          </mxGeometry>
        </mxCell>
        <mxCell id="26mJcaNlzEH-g_sx6JuL-25" value="&lt;span style=&quot;font-size: 15px;&quot;&gt;7. Request with Session ID&lt;/span&gt;" style="edgeLabel;resizable=0;html=1;;align=center;verticalAlign=middle;" connectable="0" vertex="1" parent="26mJcaNlzEH-g_sx6JuL-24">
          <mxGeometry relative="1" as="geometry">
            <mxPoint x="-7" y="1" as="offset" />
          </mxGeometry>
        </mxCell>
        <mxCell id="26mJcaNlzEH-g_sx6JuL-26" value="" style="verticalLabelPosition=bottom;sketch=0;aspect=fixed;html=1;verticalAlign=top;strokeColor=none;align=center;outlineConnect=0;shape=mxgraph.citrix.license_server;" vertex="1" parent="1">
          <mxGeometry x="690" y="402" width="103.24" height="135" as="geometry" />
        </mxCell>
        <mxCell id="26mJcaNlzEH-g_sx6JuL-27" value="&lt;span style=&quot;font-size: 15px;&quot;&gt;6. Verify session&lt;/span&gt;" style="text;html=1;align=center;verticalAlign=middle;whiteSpace=wrap;rounded=0;" vertex="1" parent="1">
          <mxGeometry x="711.62" y="547" width="60" height="30" as="geometry" />
        </mxCell>
        <mxCell id="26mJcaNlzEH-g_sx6JuL-30" value="" style="endArrow=classic;html=1;rounded=0;dashed=1;" edge="1" parent="1">
          <mxGeometry relative="1" as="geometry">
            <mxPoint x="605" y="250.47" as="sourcePoint" />
            <mxPoint x="455" y="250" as="targetPoint" />
            <Array as="points">
              <mxPoint x="605" y="250.47" />
            </Array>
          </mxGeometry>
        </mxCell>
        <mxCell id="26mJcaNlzEH-g_sx6JuL-31" value="&lt;span style=&quot;font-size: 15px;&quot;&gt;4. Cookie with session ID&lt;/span&gt;" style="edgeLabel;resizable=0;html=1;;align=center;verticalAlign=middle;" connectable="0" vertex="1" parent="26mJcaNlzEH-g_sx6JuL-30">
          <mxGeometry relative="1" as="geometry" />
        </mxCell>
        <mxCell id="26mJcaNlzEH-g_sx6JuL-32" value="" style="endArrow=classic;html=1;rounded=0;" edge="1" parent="1">
          <mxGeometry relative="1" as="geometry">
            <mxPoint x="656" y="510.47" as="sourcePoint" />
            <mxPoint x="450" y="510" as="targetPoint" />
            <Array as="points">
              <mxPoint x="656" y="510.47" />
            </Array>
          </mxGeometry>
        </mxCell>
        <mxCell id="26mJcaNlzEH-g_sx6JuL-33" value="&lt;span style=&quot;font-size: 15px;&quot;&gt;8. Response&lt;/span&gt;" style="edgeLabel;resizable=0;html=1;;align=center;verticalAlign=middle;" connectable="0" vertex="1" parent="26mJcaNlzEH-g_sx6JuL-32">
          <mxGeometry relative="1" as="geometry">
            <mxPoint x="-7" y="1" as="offset" />
          </mxGeometry>
        </mxCell>
      </root>
    </mxGraphModel>
  </diagram>
</mxfile>
